<?xml version="1.0" encoding="UTF-8" standalone="no"?>
<!-- Created with Inkscape (http://www.inkscape.org/) -->

<svg
   width="110.46918mm"
   height="64.680313mm"
   viewBox="0 0 110.46918 64.680313"
   version="1.1"
   id="svg1"
   xml:space="preserve"
   sodipodi:docname="setup.svg"
   inkscape:version="1.4.2 (f4327f4, 2025-05-13)"
   xmlns:inkscape="http://www.inkscape.org/namespaces/inkscape"
   xmlns:sodipodi="http://sodipodi.sourceforge.net/DTD/sodipodi-0.dtd"
   xmlns="http://www.w3.org/2000/svg"
   xmlns:svg="http://www.w3.org/2000/svg"
   xmlns:ns2="http://www.iki.fi/pav/software/textext/"><sodipodi:namedview
     id="namedview1"
     pagecolor="#ffffff"
     bordercolor="#000000"
     borderopacity="0.25"
     inkscape:showpageshadow="2"
     inkscape:pageopacity="0.0"
     inkscape:pagecheckerboard="0"
     inkscape:deskcolor="#d1d1d1"
     inkscape:document-units="mm"
     inkscape:zoom="0.68862935"
     inkscape:cx="180.79392"
     inkscape:cy="225.81088"
     inkscape:window-width="1920"
     inkscape:window-height="991"
     inkscape:window-x="-9"
     inkscape:window-y="-9"
     inkscape:window-maximized="1"
     inkscape:current-layer="svg1" /><defs
     id="defs1"><marker
       style="overflow:visible"
       id="marker5"
       refX="0"
       refY="0"
       orient="auto-start-reverse"
       markerWidth="1"
       markerHeight="1"
       viewBox="0 0 1 1"
       preserveAspectRatio="xMidYMid"><path
         style="fill:none;stroke:context-stroke;stroke-width:1;stroke-linecap:butt"
         d="M 3,-3 0,0 3,3"
         transform="rotate(180,0.125,0)"
         id="path5" /></marker><marker
       style="overflow:visible"
       id="ArrowWide"
       refX="0"
       refY="0"
       orient="auto-start-reverse"
       markerWidth="1"
       markerHeight="1"
       viewBox="0 0 1 1"
       preserveAspectRatio="xMidYMid"><path
         style="fill:none;stroke:context-stroke;stroke-width:1;stroke-linecap:butt"
         d="M 3,-3 0,0 3,3"
         transform="rotate(180,0.125,0)"
         id="path3" /></marker><marker
       style="overflow:visible"
       id="ArrowWide-2"
       refX="0"
       refY="0"
       orient="auto-start-reverse"
       markerWidth="1"
       markerHeight="1"
       viewBox="0 0 1 1"
       preserveAspectRatio="xMidYMid"><path
         style="fill:none;stroke:context-stroke;stroke-width:1;stroke-linecap:butt"
         d="M 3,-3 0,0 3,3"
         transform="rotate(180,0.125,0)"
         id="path3-3" /></marker><marker
       style="overflow:visible"
       id="marker5-3"
       refX="0"
       refY="0"
       orient="auto-start-reverse"
       markerWidth="1"
       markerHeight="1"
       viewBox="0 0 1 1"
       preserveAspectRatio="xMidYMid"><path
         style="fill:none;stroke:context-stroke;stroke-width:1;stroke-linecap:butt"
         d="M 3,-3 0,0 3,3"
         transform="rotate(180,0.125,0)"
         id="path5-4" /></marker></defs><g
     id="layer1"
     transform="translate(-57.433797,-88.778755)"><g
       id="g26"><path
         style="fill:#0000ff;fill-opacity:1;stroke:#000000;stroke-width:0"
         id="path1"
         d="m 142.57013,112.92461 a 12.679172,12.679172 0 0 1 13.25665,-11.86109 12.679172,12.679172 0 0 1 12.06982,13.0669 12.679172,12.679172 0 0 1 -12.87386,12.27551 12.679172,12.679172 0 0 1 -12.47811,-12.67758" /><path
         style="display:inline;fill:none;fill-rule:evenodd;stroke:#009a57;stroke-width:1.1458;stroke-linecap:butt;stroke-linejoin:miter;stroke-dasharray:1.1458, 2.29158;stroke-dashoffset:0;stroke-opacity:1;marker-end:url(#ArrowWide)"
         d="m 155.60227,113.86532 -42.59039,0.24528"
         id="path2" /><path
         style="fill:none;fill-rule:evenodd;stroke:#000000;stroke-width:1;stroke-linecap:butt;stroke-linejoin:miter;stroke-dasharray:none;stroke-opacity:1;marker-end:url(#marker5)"
         d="M 154.8631,113.76028 133.68411,89.874904"
         id="path4" /><path
         style="fill:#ff0000;fill-opacity:1;stroke:#000000;stroke-width:0"
         id="path1-3"
         d="m -82.76664,-128.10507 a 12.679172,12.679172 0 0 1 13.256648,-11.86109 12.679172,12.679172 0 0 1 12.069819,13.06689 12.679172,12.679172 0 0 1 -12.873855,12.27551 12.679172,12.679172 0 0 1 -12.478112,-12.67758"
         transform="scale(-1)" /><path
         style="display:inline;fill:none;fill-rule:evenodd;stroke:#009a57;stroke-width:1.1458;stroke-linecap:butt;stroke-linejoin:miter;stroke-dasharray:1.1458, 2.29158;stroke-dashoffset:0;stroke-opacity:1;marker-end:url(#ArrowWide-2)"
         d="m 69.734503,127.16436 42.590387,-0.24528"
         id="path2-8" /><path
         style="fill:none;fill-rule:evenodd;stroke:#000000;stroke-width:1;stroke-linecap:butt;stroke-linejoin:miter;stroke-dasharray:none;stroke-opacity:1;marker-end:url(#marker5-3)"
         d="m 70.473673,127.2694 21.17899,23.88537"
         id="path4-7" /><text
         xml:space="preserve"
         style="font-style:normal;font-variant:normal;font-weight:bold;font-stretch:normal;font-size:11.2889px;line-height:normal;font-family:Roboto;-inkscape-font-specification:'Roboto Bold';text-align:start;text-decoration-color:#000000;writing-mode:lr-tb;direction:ltr;text-anchor:start;white-space:pre;fill:#009a57;fill-opacity:1;stroke:#009a57;stroke-width:0.2;stroke-dasharray:none;stroke-dashoffset:0;stroke-opacity:1"
         x="92.596382"
         y="139.47092"
         id="text11"><tspan
           id="tspan11"
           style="font-style:normal;font-variant:normal;font-weight:bold;font-stretch:normal;font-family:Roboto;-inkscape-font-specification:'Roboto Bold';fill:#009a57;fill-opacity:1;stroke:#009a57;stroke-width:0.2;stroke-opacity:1"
           x="92.596382"
           y="139.47092"> </tspan></text><text
         xml:space="preserve"
         style="font-weight:bold;font-size:11.2889px;line-height:normal;font-family:Lato;-inkscape-font-specification:'Lato Bold';text-align:start;text-decoration-color:#000000;writing-mode:lr-tb;direction:ltr;text-anchor:start;white-space:pre;fill:#000000;fill-opacity:1;stroke:#000000;stroke-width:0.2;stroke-dasharray:none;stroke-dashoffset:0"
         x="77.875458"
         y="151.10129"
         id="text11-9"><tspan
           id="tspan11-3"
           style="stroke-width:0.2"
           x="77.875458"
           y="151.10129">v<tspan
   style="font-size:65%;baseline-shift:sub"
   id="tspan15">i</tspan></tspan></text><text
         xml:space="preserve"
         style="font-weight:bold;font-size:11.2889px;line-height:normal;font-family:Lato;-inkscape-font-specification:'Lato Bold';text-align:start;text-decoration-color:#000000;writing-mode:lr-tb;direction:ltr;text-anchor:start;white-space:pre;fill:#000000;fill-opacity:1;stroke:#000000;stroke-width:0.2;stroke-dasharray:none;stroke-dashoffset:0"
         x="141.38155"
         y="94.669945"
         id="text11-9-1"><tspan
           id="tspan11-3-1"
           style="stroke-width:0.2"
           x="141.38155"
           y="94.669945">v<tspan
   style="font-size:65%;baseline-shift:sub"
   id="tspan7">j</tspan></tspan></text><g
         id="g6142"
         transform="matrix(1.41731,0,0,1.41731,126.897,102.108)"
         ns2:version="1.12.0"
         ns2:texconverter="pdflatex"
         ns2:pdfconverter="inkscape"
         ns2:text="$\\mathbin{\\textcolor[HTML]{009A57}{\\boldsymbol{\\nu}_j}}$"
         ns2:preamble="C:\Users\shuba\Desktop\TexText-Windows-1.12.0\textext-1.12.0\textext\default_packages.tex"
         ns2:scale="4.017564352708449"
         ns2:alignment="middle center"
         ns2:inkscapeversion="1.4.2"
         ns2:jacobian_sqrt="1.41731"><defs
   id="defs2913" />
  <g
   fill="#009a57"
   fill-opacity="1"
   id="g4410"
   transform="translate(-149.165,-130.265)">
    <g
   transform="translate(148.712,134.765)"
   id="g7482"><path
   d="m 2.578125,-4.328125 c 0,-0.1875 -0.1875,-0.171875 -0.3125,-0.171875 l -1.25,0.0625 C 0.875,-4.421875 0.6875,-4.421875 0.6875,-4.140625 c 0,0.1875 0.1875,0.1875 0.265625,0.1875 0.125,0 0.296875,0 0.421875,0.015625 L 0.453125,-0.171875 C 0.453125,-0.046875 0.5625,0 0.671875,0 h 0.28125 c 1.078125,-0.171875 2.40625,-0.671875 3.515625,-1.59375 1.328125,-1.125 1.546875,-2.359375 1.546875,-2.46875 0,-0.21875 -0.15625,-0.4375 -0.46875,-0.4375 -0.140625,0 -0.515625,0.0625 -0.65625,0.515625 -0.234375,0.828125 -0.625,1.546875 -1.21875,2.15625 C 3.34375,-1.53125 2.65625,-0.875 1.640625,-0.53125 Z m 0,0"
   id="path7060" />
      </g></g>
  <g
   fill="#009a57"
   fill-opacity="1"
   id="g7065"
   transform="translate(-149.165,-130.265)">
    <g
   transform="translate(155.146,136.259)"
   id="g9902"><path
   d="M 3.0625,-4.359375 C 3.0625,-4.46875 2.96875,-4.625 2.78125,-4.625 c -0.203125,0 -0.390625,0.203125 -0.390625,0.390625 0,0.109375 0.078125,0.265625 0.28125,0.265625 0.1875,0 0.390625,-0.1875 0.390625,-0.390625 z M 1.578125,0.34375 C 1.46875,0.828125 1.09375,1.21875 0.6875,1.21875 c -0.09375,0 -0.171875,0 -0.25,-0.03125 0.171875,-0.09375 0.234375,-0.25 0.234375,-0.359375 0,-0.171875 -0.140625,-0.25 -0.28125,-0.25 C 0.1875,0.578125 0,0.765625 0,0.984375 c 0,0.265625 0.265625,0.4375 0.6875,0.4375 0.421875,0 1.234375,-0.25 1.453125,-1.09375 l 0.625,-2.5 c 0.015625,-0.078125 0.03125,-0.140625 0.03125,-0.25 0,-0.375 -0.328125,-0.65625 -0.734375,-0.65625 -0.78125,0 -1.21875,0.96875 -1.21875,1.078125 0,0.078125 0.09375,0.078125 0.109375,0.078125 0.078125,0 0.09375,-0.015625 0.140625,-0.125 C 1.265625,-2.453125 1.625,-2.875 2.03125,-2.875 c 0.171875,0 0.234375,0.109375 0.234375,0.34375 0,0.078125 0,0.171875 -0.015625,0.203125 z m 0,0"
   id="path8743" />
      </g></g>
</g><g
         id="g4488"
         transform="matrix(1.42261,0,0,1.42261,88.8064,116.144)"
         ns2:version="1.12.0"
         ns2:texconverter="pdflatex"
         ns2:pdfconverter="inkscape"
         ns2:text="$\\mathbin{\\textcolor[HTML]{009A57}{\\boldsymbol{\\nu}_i}}$"
         ns2:preamble="C:\Users\shuba\Desktop\TexText-Windows-1.12.0\textext-1.12.0\textext\default_packages.tex"
         ns2:scale="4.032586240310745"
         ns2:alignment="middle center"
         ns2:inkscapeversion="1.4.2"
         ns2:jacobian_sqrt="1.42261"><defs
   id="defs1246" />
  <g
   fill="#009a57"
   fill-opacity="1"
   id="g3239"
   transform="translate(-149.165,-130.265)">
    <g
   transform="translate(148.712,134.765)"
   id="g6020"><path
   d="m 2.578125,-4.328125 c 0,-0.1875 -0.1875,-0.171875 -0.3125,-0.171875 l -1.25,0.0625 C 0.875,-4.421875 0.6875,-4.421875 0.6875,-4.140625 c 0,0.1875 0.1875,0.1875 0.265625,0.1875 0.125,0 0.296875,0 0.421875,0.015625 L 0.453125,-0.171875 C 0.453125,-0.046875 0.5625,0 0.671875,0 h 0.28125 c 1.078125,-0.171875 2.40625,-0.671875 3.515625,-1.59375 1.328125,-1.125 1.546875,-2.359375 1.546875,-2.46875 0,-0.21875 -0.15625,-0.4375 -0.46875,-0.4375 -0.140625,0 -0.515625,0.0625 -0.65625,0.515625 -0.234375,0.828125 -0.625,1.546875 -1.21875,2.15625 C 3.34375,-1.53125 2.65625,-0.875 1.640625,-0.53125 Z m 0,0"
   id="path2104" />
      </g></g>
  <g
   fill="#009a57"
   fill-opacity="1"
   id="g1137"
   transform="translate(-149.165,-130.265)">
    <g
   transform="translate(155.146,136.259)"
   id="g5956"><path
   d="m 2.265625,-4.359375 c 0,-0.109375 -0.09375,-0.265625 -0.28125,-0.265625 -0.1875,0 -0.390625,0.1875 -0.390625,0.390625 0,0.109375 0.078125,0.265625 0.28125,0.265625 0.1875,0 0.390625,-0.203125 0.390625,-0.390625 z M 0.84375,-0.8125 c -0.03125,0.09375 -0.0625,0.171875 -0.0625,0.296875 0,0.328125 0.265625,0.578125 0.65625,0.578125 0.6875,0 1,-0.953125 1,-1.0625 0,-0.09375 -0.09375,-0.09375 -0.109375,-0.09375 -0.09375,0 -0.109375,0.046875 -0.140625,0.125 -0.15625,0.5625 -0.453125,0.84375 -0.734375,0.84375 -0.140625,0 -0.171875,-0.09375 -0.171875,-0.25 0,-0.15625 0.046875,-0.28125 0.109375,-0.4375 C 1.46875,-1 1.546875,-1.1875 1.609375,-1.375 1.671875,-1.546875 1.9375,-2.171875 1.953125,-2.265625 1.984375,-2.328125 2,-2.40625 2,-2.484375 2,-2.8125 1.71875,-3.078125 1.34375,-3.078125 0.640625,-3.078125 0.328125,-2.125 0.328125,-2 c 0,0.078125 0.09375,0.078125 0.125,0.078125 0.09375,0 0.09375,-0.03125 0.125,-0.109375 C 0.75,-2.625 1.0625,-2.875 1.3125,-2.875 c 0.109375,0 0.171875,0.046875 0.171875,0.234375 0,0.171875 -0.03125,0.265625 -0.203125,0.703125 z m 0,0"
   id="path2289" />
      </g></g>
</g></g></g></svg>
